<?xml version="1.0" encoding="utf-8" ?><svg xmlns="http://www.w3.org/2000/svg" xmlns:xlink="http://www.w3.org/1999/xlink" width="566" height="440" viewBox="0 0 566 440"><path fill="#363B3F" d="M457.113 284.848L457.547 285.05C458.37 287.619 457.911 317.944 457.908 322.995C451.238 322.512 440.355 322.824 433.398 322.813L384.241 322.811L202.311 322.817L137.191 322.824C130.434 322.765 120.601 323.181 114.197 322.767L113.522 322.27C113.244 320.633 114.016 314.956 113.994 312.785C113.904 303.606 114.154 294.183 113.926 285.025L349.367 285.024L421.958 285.02L444.231 285.043C447.975 285.047 453.557 285.208 457.113 284.848ZM124.08 314.142C128.091 314.094 131.269 314.563 134.439 311.97C137.6 308.153 138.105 298.704 133.932 295.271C131.741 293.469 127.016 293.978 124.179 293.793C123.859 300.181 124.09 307.661 124.08 314.142ZM369.565 313.996C373.535 313.612 376.085 314.326 379.618 312.184C383.05 308.795 382.689 303.196 381.642 298.744C381.325 297.394 380.366 296.226 379.517 295.132C375.667 293.567 373.959 293.796 369.752 293.852C369.17 300.387 370.11 308.537 369.565 313.996ZM341.436 308.635C340.894 304.44 339.857 298.418 338.805 294.249C337.04 294.154 335.23 294.034 333.468 293.968C333.595 300.041 333.024 308.571 333.489 314.185L336.564 313.964C336.657 311.921 336.426 300.546 336.978 299.732L337.214 300.066L336.936 299.858L337.331 300.375L337.036 299.801C337.565 300.77 337.535 300.99 337.686 302.115C337.968 304.226 339.103 314.785 341.84 314.033C344.673 311.364 344.94 301.793 346.498 297.785C346.419 304.179 346.581 307.349 346.971 313.58C347.857 313.59 348.65 313.564 349.535 313.526C349.786 308.352 350.091 298.889 349.685 293.874C347.974 293.917 346.263 293.929 344.552 293.91C343.448 296.978 342.076 305.305 341.436 308.635ZM278.747 311.995C281.651 307.745 282.293 298.634 277.761 295.145C275.317 293.264 271.293 294.134 268.407 293.846C268.452 300.647 268.447 307.449 268.393 314.251C272.003 314.047 275.966 314.5 278.747 311.995ZM313.314 310.309L313.675 314.062L317.386 313.992C317.23 311.707 317.277 309.076 316.748 306.868C316.531 305.965 315.641 305.058 315.492 304.252C315.231 302.837 319.605 298.979 315.936 295.557C313.425 293.215 308.588 293.771 305.426 293.843C305.228 296.45 304.706 312.726 305.794 314.026C306.904 314.081 306.961 314.108 307.942 313.652C309.832 311.583 308.168 308.326 308.865 305.775C310.24 304.402 311.645 305.463 312.666 306.755C313.239 307.48 313.252 309.329 313.314 310.309ZM428.727 308.243C427.384 304.87 424.803 296.668 422.95 294.253C421.917 293.816 421.361 293.882 420.246 293.853L419.509 294.1C418.692 295.906 418.774 311.223 419.153 313.347C419.982 314.161 421.274 314.179 422.052 313.27C422.786 308.944 421.736 302.718 422.463 298.901C423.099 301.549 426.432 311.758 427.969 313.581C428.888 314.028 429.295 313.952 430.35 313.981L431.533 313.634C432.193 312.053 432.099 295.949 431.584 294.018C430.482 293.768 429.806 293.898 428.687 293.992C428.38 299.602 428.286 302.688 428.727 308.243ZM201.986 314.181C202.526 313.994 202.885 314.011 202.938 313.626C203.678 308.293 203.398 299.317 203.113 294.249L199.935 293.928C199.773 298.724 199.893 302.805 199.833 307.476C199.184 305.454 195.474 295.653 194.539 293.899L190.843 294.198C190.451 295.952 190.228 312.979 190.854 313.803C191.993 313.922 192.316 313.975 193.438 313.803C194.183 312.669 193.631 302.677 193.705 300.644C193.823 300.615 193.941 300.587 194.058 300.558C195.646 302.497 197.291 311.61 199.767 313.767C200.039 314.005 201.005 314.087 201.386 314.126C201.586 314.147 201.785 314.165 201.986 314.181ZM187.363 302.847C185.111 302.821 183.344 302.845 181.076 302.974C180.876 304.155 180.651 304.314 181.063 305.308C181.903 305.72 183.283 306.016 183.537 306.921C184.848 311.591 179.154 313.043 178.575 308.576C178.201 305.691 177.442 297.859 180.682 296.762C183.554 297.07 184.616 299.802 186.807 299.418C187.078 299.129 187.36 299.002 187.26 298.618C186.127 294.258 182.922 293.334 179.027 293.851C174.662 296.321 174.242 300.866 174.331 305.447C174.401 309.013 175.561 313.139 179.492 314.134C181.632 314.71 182.968 313.149 184.859 313.694C185.674 313.962 186.198 314.254 186.957 313.979C187.798 312.769 187.436 304.818 187.363 302.847ZM440.574 314.296C444.017 313.477 444.164 313.139 447.656 313.647C447.764 309.995 448.063 306.386 448.058 302.742C446.651 302.779 442.262 302.638 441.346 303.283C441.449 304.687 441.212 304.503 441.946 305.381C442.74 305.606 443.164 305.702 443.899 306.066C444.64 307.498 444.082 310.597 442.49 311.552C437.542 311.813 437.806 299.229 440.246 296.962C443.358 295.832 445.062 300.23 447.565 299.382C448.421 297.252 446.215 294.942 444.599 293.795C443.22 293.758 440.943 293.624 439.667 293.826C437.69 294.827 435.993 296.663 435.527 298.825C434.306 304.489 433.983 312.271 440.574 314.296ZM359.319 293.593C352.516 295.034 352.34 302.429 353.318 308.157C354.001 312.153 356.846 313.837 360.678 314.153C366.798 313.362 367.148 305.489 366.461 300.647C365.869 296.475 363.832 293.67 359.319 293.593ZM323.591 302.098C323.621 300.409 323.619 298.681 323.803 297.005C325.704 296.864 328.978 297.096 330.225 295.997C330.459 295.161 330.457 295.582 330.127 294.695C328.221 293.083 323.022 294.122 320.14 293.83C320.036 299.594 320.438 309.011 320.016 314.101C321.98 314.101 329.26 314.395 330.524 313.709C330.863 312.895 330.839 312.936 330.763 312.046C329.427 310.158 325.899 311.031 323.669 311.049L323.59 307.207C323.564 305.873 323.366 306.195 324.034 305.371C326.435 304.44 328.885 306.186 330.217 304.565C330.406 303.541 330.44 303.488 330.154 302.515C329.299 301.648 325.018 302.049 323.591 302.098ZM409.019 313.864C409.128 312.67 409.351 312.451 408.848 311.521C407.094 310.461 404.757 311.04 402.411 310.957C402.387 305.684 402.483 299.682 402.181 294.489C401.368 294.355 399.286 293.967 398.574 293.948C398.313 298.74 398.438 308.906 398.58 314.006C400.711 314.045 407.118 314.252 409.019 313.864ZM265.752 314.026C265.947 312.788 266.178 312.616 265.745 311.568C264.273 310.503 261.833 311.141 259.572 310.999C258.769 306.219 259.387 299.059 259.168 294.083C257.971 294.056 256.702 294.048 255.512 293.993C255.365 300.771 255.53 307.435 255.54 314.209C259.057 313.864 262.277 314.231 265.752 314.026ZM244.836 310.018C245.125 305.148 245.056 299.104 244.998 294.177C243.888 294.079 242.633 293.995 241.539 293.867C241.272 297.218 242.08 309.135 240.191 310.824C239.603 311.35 239.045 311.436 238.285 311.47C234.723 310.271 236.154 298.01 236.024 294.357L232.44 293.987C232.269 296.298 232.171 298.312 232.247 300.634C232.164 303.983 231.445 309.761 233.878 312.436C235.632 314.364 240.79 315.063 242.619 312.847C243.364 311.954 244.125 310.967 244.836 310.018ZM251.531 313.958L252.035 313.809C252.515 311.698 252.123 296.688 252.01 293.934L248.258 294.025C247.963 295.897 248.083 312.996 248.606 313.877C249.829 314.13 250.304 314.041 251.531 313.958ZM291.464 301.424C289.835 302.159 289.067 304.04 289.716 305.705C290.364 307.37 292.202 308.236 293.899 307.676C295.079 307.287 295.947 306.278 296.157 305.054C296.367 303.829 295.884 302.589 294.901 301.829C293.918 301.069 292.596 300.913 291.464 301.424ZM212.513 292.776C211.595 294.589 205.808 313.336 206.092 314.378C206.889 314.586 206.998 314.586 207.832 314.635C208.02 314.488 208.266 314.296 208.572 314.059C210.678 307.794 212.676 300.892 214.185 294.457C214.241 294.219 214.241 293.479 214.238 293.314C213.533 292.711 213.633 292.902 212.513 292.776ZM385.267 314.005C386.945 314.024 395.109 314.275 396.076 313.835C396.416 312.982 396.404 312.945 396.319 312.01C394.76 309.604 390.81 312.151 389.159 310.513C389.141 309.938 389.127 309.363 389.118 308.788C389.029 307.682 388.814 306.837 389.323 305.902C390.805 304.571 393.25 305.238 395.651 305.098L395.48 302.11L389.368 302.046C389.266 300.363 389.157 298.708 389.131 297.021C390.638 296.984 394.008 297.073 395.109 296.351C395.197 295.583 395.158 295.056 395.129 294.281C393.936 293.681 387.322 293.957 385.44 293.799C385.196 300.285 385.67 307.86 385.267 314.005ZM171.375 293.925C170.295 293.995 168.976 294.12 167.915 294.117C167.665 296.993 167.498 311.202 168.17 313.464C169.128 314.069 169.907 313.826 171.123 313.669C171.718 308.912 171.087 299.406 171.375 293.925ZM413.94 293.905C413.126 293.942 412.38 293.871 411.736 294.338C411.463 296.06 411.497 311.938 411.791 313.722C412.378 314.146 412.728 314.072 413.457 314.086C414.029 313.867 415.026 313.651 415.03 313.14C415.057 309.793 416 296.208 414.876 294.006C414.393 293.908 414.412 293.862 413.94 293.905ZM221.292 302.316C221.268 300.629 221.005 298.088 221.787 296.695C223.42 295.588 224.22 296.951 225.34 298.169C225.724 298.588 225.547 300.287 225.509 300.873C224.024 301.756 222.974 301.963 221.292 302.316ZM143.389 311.175C143.376 309.812 143.342 308.405 143.388 307.047C143.303 305.849 143.138 306.157 143.731 305.462C145.94 304.663 148.205 305.641 149.969 304.949C150.26 304.033 150.453 302.896 149.766 302.107C148.576 301.91 144.826 302.048 143.436 302.067C143.422 300.784 143.298 298.636 143.644 297.499C146.048 295.932 149.335 298.128 150.571 296.011C150.636 295.036 150.686 294.949 150.258 294.114C149.538 293.676 141.605 293.958 140.025 293.905C139.546 297.757 139.757 309.726 139.957 313.891C142.065 313.998 148.808 314.517 150.379 313.619C150.765 312.882 150.706 312.762 150.621 311.949C149.21 310.15 145.638 311.15 143.389 311.175ZM228.165 302.082C228.899 301.487 228.989 301.05 229.096 300.095C230.003 292.038 222.06 294.3 217.458 293.802C217.353 299.156 217.176 308.913 217.811 313.939C222.444 314.178 227.143 315.135 229.611 310.233C230.332 306.24 228.709 305.966 227.625 302.952L228.165 302.082ZM225.22 310.79C223.615 311.153 222.856 311.648 221.527 310.548C220.845 309.076 221.267 306.515 221.391 304.752C225.647 304.976 227.54 306.397 225.22 310.79ZM154.821 313.292C157.464 314.346 157.938 314.375 160.781 314.085C166.74 312.598 166.772 304.445 160.695 302.548C158.769 301.947 156.084 299.936 156.891 297.449C157.646 296.705 157.935 296.548 159.044 296.542C160.814 296.531 160.767 299.083 162.274 299.3C163.007 299.406 164.01 299.369 164.774 299.387C163.371 293.668 162.411 293.569 156.66 293.834C154.531 295.016 154.643 294.952 153.569 297.06C150.193 303.685 161.459 305.328 161.499 309.536C160.978 310.868 159.413 311.625 158.022 311.385C156.788 310.554 155.373 306.549 152.562 308.916C152.507 310.252 153.982 312.246 154.821 313.292Z"/><path fill="#363B3F" d="M359.431 296.475C364.081 297.29 362.829 303.876 362.65 307.379C362.567 309.005 361.81 310.498 360.462 311.465C355.702 310.872 356.781 304.169 357.035 300.657C357.187 298.562 357.774 297.666 359.431 296.475Z"/><path fill="#363B3F" d="M127.983 296.518C134.169 297.43 133.296 302.469 132.727 307.42C132.611 308.428 131.992 309.46 131.462 310.323C130.35 310.93 128.963 311.701 127.868 310.82C127.333 308.813 127.371 298.418 127.983 296.518Z"/><path fill="#363B3F" d="M373.428 296.5C380.313 296.733 379.408 306.142 376.952 310.249C375.843 311.029 374.829 311.567 373.543 310.998C372.916 309.551 373.293 298.671 373.428 296.5Z"/><path fill="#363B3F" d="M272.096 296.497C272.813 296.556 274.5 296.716 275.048 297.142C278.718 299.998 277.689 306.95 275.608 310.412C274.553 311.079 273.181 311.251 271.941 311.498C271.851 306.456 271.689 301.534 272.096 296.497Z"/><path fill="#363B3F" d="M308.988 296.64C312.547 296.569 315.466 298.568 312.616 301.893C311.521 302.396 311.337 302.493 310.147 302.606C307.824 301.739 308.431 298.63 308.988 296.64Z"/><path fill="#363B3F" d="M221.391 304.752C225.647 304.976 227.54 306.397 225.22 310.79C223.615 311.153 222.856 311.648 221.527 310.548C220.845 309.076 221.267 306.515 221.391 304.752Z"/><path fill="#363B3F" d="M221.292 302.316C221.268 300.629 221.005 298.088 221.787 296.695C223.42 295.588 224.22 296.951 225.34 298.169C225.724 298.588 225.547 300.287 225.509 300.873C224.024 301.756 222.974 301.963 221.292 302.316Z"/><path fill="#363B3F" d="M113.97 183.084C117.133 183.49 126.985 183.227 130.787 183.226L168.218 183.214C179.395 183.211 191.54 182.518 202.375 184.984C207.968 186.258 213.582 188.855 216.568 193.986C220.176 200.187 220.549 208.486 219.018 215.395C218.184 219.162 216.124 222.919 212.656 224.789C211.129 225.612 209.52 226.06 207.984 227.018C208.237 227.363 210.047 227.875 210.588 228.014C224.394 231.563 224.473 247.994 221.128 259.206C216.758 272.369 200.772 272.046 189.336 272.392C180.278 272.626 171.216 272.683 162.155 272.566L113.883 272.618C114.205 268.133 114.045 261.829 114.047 257.24L114.052 230.671L114.073 200.361C114.075 195.017 114.256 188.345 113.97 183.084ZM187.063 251.927C189.175 251.684 190.936 251.185 192.915 250.395C193.651 249.343 194.441 248.145 195.258 247.172C195.458 244.976 196.034 241.029 194.438 239.447C191.662 236.697 184.126 236.181 180.46 236.157C170.1 236.09 159.711 236.041 149.385 236.15C147.104 236.287 142.766 236.676 140.688 236.587C140.719 241.748 140.716 246.908 140.68 252.069C151.056 251.989 161.433 251.974 171.809 252.022C176.34 252.025 182.688 252.208 187.063 251.927ZM140.596 218.594L170.388 218.566C175.276 218.561 187.389 219.391 190.971 216.627C194.311 213.605 193.813 204.511 186.958 204.187C171.569 203.458 156.069 204.27 140.685 203.928C140.604 208.813 140.728 213.72 140.596 218.594Z"/><path fill="#363B3F" d="M353.983 183.128C371.776 183.59 390.162 182.966 408.011 183.214C415.941 183.515 424.257 182.664 432.141 183.492C445.59 184.903 455.795 192.933 456.909 206.912C458.604 228.193 456.89 246.083 431.752 248.587C428.825 248.887 423.364 248.751 420.234 248.75L399.752 248.746C396.697 248.747 383.014 249.066 381.026 248.626C380.902 255.924 380.889 265.049 381.175 272.301C378.095 272.061 373.981 272.178 370.851 272.186L354.051 272.238C354.413 266.3 354.212 258.272 354.225 252.199C354.288 239.32 354.283 226.442 354.212 213.564L354.264 193.402C354.264 190.811 354.419 185.479 353.983 183.128ZM381.114 227C390.011 226.95 398.908 226.945 407.806 226.986C413.92 226.993 423.3 228.017 428.147 224.224C432.659 218.596 431.555 206.773 423.174 205.49C419.507 204.929 414.998 205.127 411.244 205.127L391.872 205.156C388.561 205.164 384.308 205.305 381.12 205.118C380.967 212.326 381.066 219.782 381.114 227Z"/><path fill="#9B1C26" d="M270.819 182.533C271.405 182.509 271.992 182.489 272.579 182.473C279.097 182.298 286.757 182.281 293.373 182.394C305.796 182.606 325.142 181.623 334.77 190.588C341.509 196.863 342.016 207.322 342.218 215.828C339.423 215.488 334.302 215.62 331.342 215.626C326.101 215.637 320.52 215.55 315.305 215.773L315.274 214.333L315.269 213.913C315.221 211.625 314.515 209.011 312.756 207.442C308.184 203.361 281.509 204.097 274.874 204.7C270.02 205.141 265.68 205.484 262.381 209.5C257.837 215.03 258.168 230.343 258.897 237.214C259.333 241.322 260.659 245.399 263.997 248.06C265.451 249.218 267.146 249.941 268.963 250.307C275.409 251.605 300.018 251.372 306.906 250.499C312.385 249.805 312.341 248.899 315.457 244.916C316.384 242.232 316.664 240.934 316.807 238.106C324.898 238.502 335.304 238.259 343.549 238.262C342.43 246.894 343.657 257.114 336.959 263.93C325.808 275.28 302.725 273.134 288.502 273.263C264.55 273.471 232.829 275.508 231.993 242.582C231.697 230.918 230.586 212.271 234.043 201.27C235.091 198.016 236.806 195.016 239.079 192.462C246.84 183.755 259.938 183.114 270.819 182.533Z"/><path fill="#9B1C26" d="M127.73 169.612C129.995 168.867 139.907 168.444 142.979 168.167L184.606 164.195L197.99 163.077C198.875 163.004 204.081 162.634 204.607 162.421C207.413 161.288 211.545 158.305 214.398 156.601C231.338 146.481 247.944 135.778 264.7 125.374C271.341 121.25 279.4 116.099 286.197 112.429C292.92 116.02 301.071 121.537 307.724 125.613C312.079 128.28 320.337 133.295 324.099 136.209L324.01 124.078C328.708 124.291 340.283 124.469 344.985 124.156C344.935 129.152 344.912 134.148 344.916 139.144C344.913 141.731 344.812 146.353 345.181 148.827C348.927 151.171 362.237 160.531 366.025 161.966C368.75 162.999 382.69 163.491 386.492 163.844L430.804 168.202C438.79 168.991 446.604 169.235 454.512 170.5C454.887 170.56 454.736 170.444 454.881 170.863C451.568 171.539 447.698 171.046 444.179 171.077L420.616 171.316L368.837 171.317C361.707 171.317 354.582 171.371 347.451 171.42C343.34 171.449 339.945 168.549 336.501 166.514C330.999 163.262 325.663 159.658 320.275 156.217L296.968 141.34C294.334 139.677 288.281 136.472 286.555 134.446C283.092 136.39 280.388 138.347 277.076 140.441L257.821 152.44C248.611 158.095 239.173 163.889 230.035 169.686C229.117 170.268 227.997 170.771 227.159 171.376L169.024 171.329C160.702 171.322 149.809 171.622 141.664 171.271C136.618 171.338 131.494 171.18 126.446 171.209C123.054 171.228 119.613 171.582 116.229 171.446C119.979 170.007 123.722 169.953 127.73 169.612Z"/><path fill="#812D2F" d="M116.229 171.446C119.979 170.007 123.722 169.953 127.73 169.612C127.2 169.896 126.683 170.171 126.163 170.475C128.844 170.59 139.763 170.67 141.664 171.271C136.618 171.338 131.494 171.18 126.446 171.209C123.054 171.228 119.613 171.582 116.229 171.446Z"/><path fill="#9B1C26" d="M275.569 162.57C278.372 162.703 281.721 162.699 284.531 162.625C284.591 165.35 284.397 168.412 284.423 171.263C281.579 171.766 278.381 171.609 275.464 171.579C275.099 169.391 275.132 164.804 275.569 162.57Z"/><path fill="#9B1C26" d="M295.563 150.783C295.729 150.771 295.945 150.961 296.144 151.084C296.409 152.461 296.256 157.564 296.394 159.659C293.252 160.22 291.617 160.055 288.477 159.734L287.858 159.727C287.128 158.625 287.429 152.833 287.359 150.912C290.065 150.958 292.852 150.85 295.563 150.783Z"/><path fill="#9B1C26" d="M275.591 150.87C278.022 150.741 281.925 150.912 284.462 150.943C284.258 153.795 284.644 156.971 284.325 159.783C281.34 159.716 278.226 159.747 275.23 159.734C275.203 157.103 275.545 153.725 275.591 150.87Z"/><path fill="#9B1C26" d="M291.149 162.663C293.116 162.397 294.435 162.544 296.394 162.681C296.46 165.661 296.196 168.345 296.379 171.496L292.513 171.51C285.045 171.388 287.616 170.008 287.396 162.803C288.742 162.805 289.808 162.825 291.149 162.663Z"/></svg>